<svg xmlns="http://www.w3.org/2000/svg" xmlns:xlink="http://www.w3.org/1999/xlink">
  <defs id="SvgjsDefs1518"></defs>
  <g id="SvgjsG1519" featurekey="sloganFeature-0"
    transform="matrix(1.146496620288136,0,0,1.146496620288136,10.477707380696883,40.68025692832124)" fill="#40a8c4">
    <path
      d="M4.34 20 l-2.14 0 l0 -14.92 l2.14 0 l0 14.92 z M20.34 15.46 q0 1.46 -0.88 2.6 q-0.86 1.08 -2.37 1.68 t-3.41 0.6 q-1.74 0 -3.38 -0.81 t-2.76 -2.25 l1.56 -1.46 q1.94 2.34 4.58 2.34 q1.16 0 2.12 -0.28 q1.06 -0.32 1.64 -0.9 q0.66 -0.64 0.66 -1.52 q0 -1.06 -0.66 -1.6 q-0.56 -0.46 -1.66 -0.6 q-0.64 -0.08 -2.1 -0.08 q-2.68 0 -4.09 -0.98 t-1.41 -2.88 q0 -1.2 0.71 -2.28 t1.95 -1.72 q1.28 -0.68 2.84 -0.68 q1.76 0 3.18 0.54 q1.52 0.58 2.82 1.82 l-1.36 1.6 q-1.22 -0.98 -2.22 -1.37 t-2.42 -0.39 q-0.82 0 -1.53 0.34 t-1.13 0.91 t-0.42 1.21 q0 1.72 3.18 1.72 q2.54 0 4.02 0.52 q1.4 0.5 2 1.52 q0.54 0.9 0.54 2.4 z M41.86 12.440000000000001 q0 -1.6 -0.82 -2.9 q-0.78 -1.26 -2.13 -1.98 t-2.93 -0.72 q-1.64 0 -2.99 0.74 t-2.11 2.02 q-0.78 1.34 -0.78 2.98 q0 1.56 0.84 2.88 q0.8 1.24 2.15 1.97 t2.92 0.73 t2.92 -0.76 t2.13 -2.04 q0.8 -1.34 0.8 -2.92 z M44.019999999999996 12.559999999999999 q0 2.16 -1.12 3.98 q-1.08 1.74 -2.93 2.77 t-3.99 1.03 q-2.22 0 -4.08 -1.08 q-1.82 -1.04 -2.86 -2.86 q-1.08 -1.86 -1.08 -4.08 q0 -2.14 1.14 -3.94 q1.08 -1.72 2.93 -2.73 t3.97 -1.01 q2.18 0 4.04 1.06 q1.82 1.04 2.88 2.82 q1.1 1.86 1.1 4.04 z M53.92 20.34 q-2.1 0 -3.61 -0.73 t-2.3 -2.11 t-0.79 -3.3 l0 -9.12 l2.16 0 l0 9.12 q0 1.92 1.18 2.94 t3.36 1.02 t3.36 -1.02 t1.18 -2.94 l0 -9.12 l2.16 0 l0 9.12 q0 1.92 -0.79 3.3 t-2.3 2.11 t-3.61 0.73 z M75.92 7.279999999999999 l-5.26 0 l0 12.72 l-2.12 0 l0 -12.72 l-5.32 0 l0 -2.2 l12.7 0 l0 2.2 z M90.32000000000001 15.46 q0 1.46 -0.88 2.6 q-0.86 1.08 -2.37 1.68 t-3.41 0.6 q-1.74 0 -3.38 -0.81 t-2.76 -2.25 l1.56 -1.46 q1.94 2.34 4.58 2.34 q1.16 0 2.12 -0.28 q1.06 -0.32 1.64 -0.9 q0.66 -0.64 0.66 -1.52 q0 -1.06 -0.66 -1.6 q-0.56 -0.46 -1.66 -0.6 q-0.64 -0.08 -2.1 -0.08 q-2.68 0 -4.09 -0.98 t-1.41 -2.88 q0 -1.2 0.71 -2.28 t1.95 -1.72 q1.28 -0.68 2.84 -0.68 q1.76 0 3.18 0.54 q1.52 0.58 2.82 1.82 l-1.36 1.6 q-1.22 -0.98 -2.22 -1.37 t-2.42 -0.39 q-0.82 0 -1.53 0.34 t-1.13 0.91 t-0.42 1.21 q0 1.72 3.18 1.72 q2.54 0 4.02 0.52 q1.4 0.5 2 1.52 q0.54 0.9 0.54 2.4 z M95.66000000000001 20 l-2.14 0 l0 -14.92 l2.14 0 l0 14.92 z M103.04000000000002 7.279999999999999 l0 10.54 l3.38 0 q1.4 0 2.52 -0.72 q1.06 -0.7 1.66 -1.88 t0.6 -2.58 q0 -1.46 -0.57 -2.68 t-1.63 -1.94 q-1.14 -0.74 -2.62 -0.74 l-3.34 0 z M99.72000000000001 7.279999999999999 l-0.96 -2.2 l7.6 0 q1.98 0 3.62 1.02 q1.58 0.98 2.5 2.68 t0.92 3.7 q0 1.5 -0.59 2.97 t-1.63 2.57 q-1 1.08 -2.14 1.54 q-1.1 0.44 -2.62 0.44 l-5.52 0 l0 -12.72 l-1.18 0 z M118.98000000000002 14.02 l0 3.8 l9.2 0 l0 2.18 l-11.38 0 l0 -14.92 l10.5 0 l0 2.2 l-8.32 0 l0 4.52 q0.62 -0.36 1.38 -0.48 q0.56 -0.1 1.44 -0.1 l3.26 0 l0 2.22 l-3.26 0 q-0.82 0 -1.44 0.1 q-0.76 0.14 -1.38 0.48 z M153.52 5.08 l2.3 0 l-4.76 14.92 l-2.36 0 l-2.88 -8.82 l-2.8 8.82 l-2.36 0 l-5.06 -14.92 l2.24 0 l3.96 11.16 l2.8 -8.8 l-0.76 -2.36 l2.24 0 l3.76 11.16 z M160.9 14.02 l0 3.8 l9.2 0 l0 2.18 l-11.38 0 l0 -14.92 l10.5 0 l0 2.2 l-8.32 0 l0 4.52 q0.62 -0.36 1.38 -0.48 q0.56 -0.1 1.44 -0.1 l3.26 0 l0 2.22 l-3.26 0 q-0.82 0 -1.44 0.1 q-0.76 0.14 -1.38 0.48 z M184.70000000000002 7.279999999999999 l-5.26 0 l0 12.72 l-2.12 0 l0 -12.72 l-5.32 0 l0 -2.2 l12.7 0 l0 2.2 z M189.72 19.16 q0 -0.5 0.34 -0.85 t0.84 -0.35 t0.85 0.35 t0.35 0.85 t-0.35 0.83 t-0.85 0.33 t-0.84 -0.33 t-0.34 -0.83 z M187.70000000000002 8.64 l-1.4 -1.64 q0.96 -1.08 2.06 -1.66 q1.36 -0.7 3.08 -0.7 q1.84 0 3.06 0.74 q1.04 0.62 1.56 1.68 q0.42 0.88 0.42 1.8 q0 1.2 -0.34 2 t-1.14 1.48 q-0.72 0.62 -2.14 1.4 l-0.08 0.04 q-0.48 0.28 -0.66 0.42 q-0.28 0.26 -0.4 0.66 q-0.16 0.44 -0.16 1.22 l-1.4 0 l-0.04 -0.5 q-0.08 -0.7 -0.08 -1.04 q0 -0.88 0.32 -1.48 q0.4 -0.72 1.38 -1.16 q0.9 -0.4 1.38 -0.74 q0.6 -0.42 0.88 -0.94 q0.32 -0.58 0.32 -1.36 q0 -0.42 -0.24 -0.82 q-0.28 -0.52 -0.86 -0.82 q-0.72 -0.38 -1.78 -0.38 q-1.26 0 -2.16 0.5 q-0.68 0.38 -1.58 1.3 z">
    </path>
  </g>
  <g id="SvgjsG1520" featurekey="nameLeftFeature-0"
    transform="matrix(2.5714285714285716,0,0,2.5714285714285716,-1.542858123779297,-15.42857142857143)" fill="#235784">
    <path
      d="M20.54 6 l-4.6 14 l-2.1 0 l-3.28 -8.86 l-3.26 8.86 l-2.1 0 l-4.6 -14 l3.08 0 l2.68 8.3 l3.06 -8.3 l2.3 0 l3.06 8.3 l2.68 -8.3 l3.08 0 z M25.26 17.32 l5.92 0 l0 2.68 l-6.32 0 l-2.52 0 l0 -14 l2.92 0 l5.74 0 l0 2.68 l-5.74 0 l0 2.96 l4.34 0 l0 2.64 l-4.34 0 l0 3.04 z">
    </path>
  </g>
  <g id="SvgjsG1521" featurekey="inlineSymbolFeature-0" transform="matrix(0.45,0,0,0.45,79.5,-4.5)" fill="#235784">
    <path xmlns="http://www.w3.org/2000/svg"
      d="M50,10L10,90h80L50,10z M50,24.909L72.546,70H42.36l3.333-6.667h16.064L50,39.814L31.575,76.667h44.304l3.333,6.666H20.788  L50,24.909z">
    </path>
  </g>
  <g id="SvgjsG1522" featurekey="nameRightFeature-0"
    transform="matrix(2.5714285714285716,0,0,2.5714285714285716,122.94285787854876,-15.42857142857143)" fill="#235784">
    <path
      d="M10.7 6 l0 2.68 l-3.48 0 l0 11.32 l-2.92 0 l0 -11.32 l-3.5 0 l0 -2.68 l9.9 0 z M21.259999999999998 6 l2.92 0 l0 14 l-2.92 0 l0 -5.66 l-5.64 0 l0 5.66 l-2.92 0 l0 -14 l2.92 0 l0 5.66 l5.64 0 l0 -5.66 z M29.500000000000004 17.32 l5.92 0 l0 2.68 l-6.32 0 l-2.52 0 l0 -14 l2.92 0 l5.74 0 l0 2.68 l-5.74 0 l0 2.96 l4.34 0 l0 2.64 l-4.34 0 l0 3.04 z M48.54 20 l-3.1 0 l-2.98 -4.66 l-0.04 0 l-1.98 0 l0 4.66 l-2.92 0 l0 -14 l4.9 0 c3.14 0 5.18 1.9 5.18 4.76 c0 1.9 -0.92 3.32 -2.48 4.04 z M40.44 8.68 l0 4.14 l1.8 0 c1.44 0 2.44 -0.56 2.44 -2.06 c0 -1.48 -1 -2.08 -2.44 -2.08 l-1.8 0 z">
    </path>
  </g>
</svg>